<?xml version="1.0" encoding="UTF-8" standalone="no"?>
<!-- Created with Inkscape (http://www.inkscape.org/) -->

<svg
   width="210mm"
   height="297mm"
   viewBox="0 0 210 297"
   version="1.1"
   id="svg5470"
   sodipodi:docname="box-AntonSmariGunnarsson.svg"
   inkscape:version="1.2.2 (732a01da63, 2022-12-09)"
   xmlns:inkscape="http://www.inkscape.org/namespaces/inkscape"
   xmlns:sodipodi="http://sodipodi.sourceforge.net/DTD/sodipodi-0.dtd"
   xmlns="http://www.w3.org/2000/svg"
   xmlns:svg="http://www.w3.org/2000/svg">
  <sodipodi:namedview
     id="namedview5472"
     pagecolor="#ffffff"
     bordercolor="#000000"
     borderopacity="0.25"
     inkscape:showpageshadow="2"
     inkscape:pageopacity="0.0"
     inkscape:pagecheckerboard="0"
     inkscape:deskcolor="#d1d1d1"
     inkscape:document-units="mm"
     showgrid="false"
     inkscape:zoom="1.4503086"
     inkscape:cx="254.4286"
     inkscape:cy="194.78612"
     inkscape:window-width="1920"
     inkscape:window-height="1001"
     inkscape:window-x="-9"
     inkscape:window-y="-9"
     inkscape:window-maximized="1"
     inkscape:current-layer="layer1" />
  <defs
     id="defs5467" />
  <g
     inkscape:label="Layer 1"
     inkscape:groupmode="layer"
     id="layer1">
    <g
       id="panel3878">
      <path
         style="fill:none;stroke:#000000;stroke-width:1"
         d="M 76.35 200.8 L 94.1125 200.8 L 94.1125 197.7 L 109.263 197.7 L 109.263 200.8 L 126.95 200.8 L 126.95 197.7 L 142.1 197.7 L 142.1 200.8 L 159.787 200.8 L 159.787 197.7 L 174.938 197.7 L 174.938 200.8 L 192.7 200.8"
         id="path5620" />
      <path
         style="fill:none;stroke:#000000;stroke-width:1"
         d="M 192.7 200.8 L 192.7 223.45 L 189.6 223.45 L 189.6 238.3 L 192.7 238.3 L 192.7 260.95"
         id="path5622" />
      <path
         style="fill:none;stroke:#000000;stroke-width:1"
         d="M 192.7 260.95 L 174.938 260.95 L 174.938 264.05 L 159.787 264.05 L 159.787 260.95 L 142.1 260.95 L 142.1 264.05 L 126.95 264.05 L 126.95 260.95 L 109.262 260.95 L 109.262 264.05 L 94.1125 264.05 L 94.1125 260.95 L 76.35 260.95"
         id="path5624" />
      <path
         style="fill:none;stroke:#000000;stroke-width:1"
         d="M 76.35 260.95 L 76.35 238.3 L 79.45 238.3 L 79.45 223.45 L 76.35 223.45 L 76.35 200.8"
         id="path5626" />
    </g>
    <g
       id="panel2048">
      <path
         style="fill:none;stroke:#000000;stroke-width:1"
         d="M 8.1 79.45 L 30.6 79.45 L 30.6 76.35 L 45.75 76.35 L 45.75 79.45 L 68.25 79.45"
         id="path5629" />
      <path
         style="fill:none;stroke:#000000;stroke-width:1"
         d="M 68.25 79.45 L 68.25 94.1125 L 71.35 94.1125 L 71.35 109.263 L 68.25 109.263 L 68.25 126.95 L 71.35 126.95 L 71.35 142.1 L 68.25 142.1 L 68.25 159.787 L 71.35 159.787 L 71.35 174.938 L 68.25 174.938 L 68.25 189.6"
         id="path5631" />
      <path
         style="fill:none;stroke:#000000;stroke-width:1"
         d="M 68.25 189.6 L 45.75 189.6 L 45.75 192.7 L 30.6 192.7 L 30.6 189.6 L 8.1 189.6"
         id="path5633" />
      <path
         style="fill:none;stroke:#000000;stroke-width:1"
         d="M 8.1 189.6 L 8.1 174.938 L 5 174.938 L 5 159.787 L 8.1 159.787 L 8.1 142.1 L 5 142.1 L 5 126.95 L 8.1 126.95 L 8.1 109.262 L 5 109.262 L 5 94.1125 L 8.1 94.1125 L 8.1 79.45"
         id="path5635" />
    </g>
    <g
       id="panel7474">
      <path
         style="fill:none;stroke:#000000;stroke-width:1"
         d="M 76.35 76.35 L 94.2625 76.35 L 94.2625 79.45 L 109.112 79.45 L 109.112 76.35 L 127.1 76.35 L 127.1 79.45 L 141.95 79.45 L 141.95 76.35 L 159.938 76.35 L 159.938 79.45 L 174.787 79.45 L 174.787 76.35 L 192.7 76.35"
         id="path5638" />
      <path
         style="fill:none;stroke:#000000;stroke-width:1"
         d="M 192.7 76.35 L 192.7 94.2625 L 189.6 94.2625 L 189.6 109.112 L 192.7 109.112 L 192.7 127.1 L 189.6 127.1 L 189.6 141.95 L 192.7 141.95 L 192.7 159.938 L 189.6 159.938 L 189.6 174.787 L 192.7 174.787 L 192.7 192.7"
         id="path5640" />
      <path
         style="fill:none;stroke:#000000;stroke-width:1"
         d="M 192.7 192.7 L 174.787 192.7 L 174.787 189.6 L 159.938 189.6 L 159.938 192.7 L 141.95 192.7 L 141.95 189.6 L 127.1 189.6 L 127.1 192.7 L 109.112 192.7 L 109.112 189.6 L 94.2625 189.6 L 94.2625 192.7 L 76.35 192.7"
         id="path5642" />
      <path
         style="fill:none;stroke:#000000;stroke-width:1"
         d="M 76.35 192.7 L 76.35 174.787 L 79.45 174.787 L 79.45 159.938 L 76.35 159.938 L 76.35 141.95 L 79.45 141.95 L 79.45 127.1 L 76.35 127.1 L 76.35 109.112 L 79.45 109.112 L 79.45 94.2625 L 76.35 94.2625 L 76.35 76.35"
         id="path5644" />
    </g>
    <g
       id="panel7836">
      <path
         style="fill:none;stroke:#000000;stroke-width:1"
         d="M 200.8 79.45 L 223.3 79.45 L 223.3 76.35 L 238.45 76.35 L 238.45 79.45 L 260.95 79.45"
         id="path5647" />
      <path
         style="fill:none;stroke:#000000;stroke-width:1"
         d="M 260.95 79.45 L 260.95 94.1125 L 264.05 94.1125 L 264.05 109.263 L 260.95 109.263 L 260.95 126.95 L 264.05 126.95 L 264.05 142.1 L 260.95 142.1 L 260.95 159.787 L 264.05 159.787 L 264.05 174.938 L 260.95 174.938 L 260.95 189.6"
         id="path5649" />
      <path
         style="fill:none;stroke:#000000;stroke-width:1"
         d="M 260.95 189.6 L 238.45 189.6 L 238.45 192.7 L 223.3 192.7 L 223.3 189.6 L 200.8 189.6"
         id="path5651" />
      <path
         style="fill:none;stroke:#000000;stroke-width:1"
         d="M 200.8 189.6 L 200.8 174.938 L 197.7 174.938 L 197.7 159.787 L 200.8 159.787 L 200.8 142.1 L 197.7 142.1 L 197.7 126.95 L 200.8 126.95 L 200.8 109.262 L 197.7 109.262 L 197.7 94.1125 L 200.8 94.1125 L 200.8 79.45"
         id="path5653" />
    </g>
    <g
       id="panel8074">
      <path
         style="fill:none;stroke:#000000;stroke-width:1"
         d="M 269.05 76.35 L 286.963 76.35 L 286.963 79.45 L 301.813 79.45 L 301.813 76.35 L 319.8 76.35 L 319.8 79.45 L 334.65 79.45 L 334.65 76.35 L 352.638 76.35 L 352.638 79.45 L 367.488 79.45 L 367.488 76.35 L 385.4 76.35"
         id="path5656" />
      <path
         style="fill:none;stroke:#000000;stroke-width:1"
         d="m 385.4,76.35 v 17.9125 h -3.1 v 14.8495 h 6.80417 c 6.20232,10.00927 1.42484,12.91396 0,17.988 H 382.3 v 14.85 h 6.80417 c 5.77602,8.71413 2.11834,12.98887 0,17.988 H 382.3 v 14.849 h 3.1 V 192.7"
         id="path5658"
         sodipodi:nodetypes="cccccccccccccc" />
      <path
         style="fill:none;stroke:#000000;stroke-width:1"
         d="M 385.4 192.7 L 367.488 192.7 L 367.488 189.6 L 352.637 189.6 L 352.637 192.7 L 334.65 192.7 L 334.65 189.6 L 319.8 189.6 L 319.8 192.7 L 301.812 192.7 L 301.812 189.6 L 286.962 189.6 L 286.962 192.7 L 269.05 192.7"
         id="path5660" />
      <path
         style="fill:none;stroke:#000000;stroke-width:1"
         d="M 269.05 192.7 L 269.05 174.787 L 272.15 174.787 L 272.15 159.938 L 269.05 159.938 L 269.05 141.95 L 272.15 141.95 L 272.15 127.1 L 269.05 127.1 L 269.05 109.112 L 272.15 109.112 L 272.15 94.2625 L 269.05 94.2625 L 269.05 76.35"
         id="path5662" />
    </g>
    <g
       id="panel1887">
      <path
         style="fill:none;stroke:#000000;stroke-width:1"
         d="M 76.35 8.1 L 94.1125 8.1 L 94.1125 5 L 109.263 5 L 109.263 8.1 L 126.95 8.1 L 126.95 5 L 142.1 5 L 142.1 8.1 L 159.787 8.1 L 159.787 5 L 174.938 5 L 174.938 8.1 L 192.7 8.1"
         id="path5665" />
      <path
         style="fill:none;stroke:#000000;stroke-width:1"
         d="M 192.7 8.1 L 192.7 30.75 L 189.6 30.75 L 189.6 45.6 L 192.7 45.6 L 192.7 68.25"
         id="path5667" />
      <path
         style="fill:none;stroke:#000000;stroke-width:1"
         d="M 192.7 68.25 L 174.938 68.25 L 174.938 71.35 L 159.787 71.35 L 159.787 68.25 L 142.1 68.25 L 142.1 71.35 L 126.95 71.35 L 126.95 68.25 L 109.262 68.25 L 109.262 71.35 L 94.1125 71.35 L 94.1125 68.25 L 76.35 68.25"
         id="path5669" />
      <path
         style="fill:none;stroke:#000000;stroke-width:1"
         d="M 76.35 68.25 L 76.35 45.6 L 79.45 45.6 L 79.45 30.75 L 76.35 30.75 L 76.35 8.1"
         id="path5671" />
    </g>
    <circle
       style="fill:none;stroke:#000000;stroke-width:1;stroke-dasharray:none"
       id="path5758"
       cx="304.54529"
       cy="113.97501"
       r="12" />
    <circle
       style="fill:none;stroke:#000000;stroke-width:1;stroke-dasharray:none"
       id="circle6240"
       cx="348.94055"
       cy="113.97501"
       r="12" />
    <circle
       style="fill:none;stroke:#000000;stroke-width:1;stroke-dasharray:none"
       id="circle6242"
       cx="304.54529"
       cy="158.01251"
       r="12" />
    <circle
       style="fill:none;stroke:#000000;stroke-width:1;stroke-dasharray:none"
       id="circle6244"
       cx="348.94055"
       cy="158.01251"
       r="12" />
    <ellipse
       style="fill:none;stroke:#000000;stroke-width:1;stroke-dasharray:none"
       id="path10176"
       cx="94.040535"
       cy="52.44595"
       rx="1"
       ry="1.0000005" />
    <ellipse
       style="fill:none;stroke:#000000;stroke-width:1;stroke-dasharray:none"
       id="ellipse10178"
       cx="103.16216"
       cy="47.702705"
       rx="1"
       ry="1.0000005" />
    <ellipse
       style="fill:none;stroke:#000000;stroke-width:1;stroke-dasharray:none"
       id="ellipse10180"
       cx="99.87838"
       cy="52.44595"
       rx="1"
       ry="1.0000005" />
    <ellipse
       style="fill:none;stroke:#000000;stroke-width:1;stroke-dasharray:none"
       id="ellipse10182"
       cx="164.64189"
       cy="52.44595"
       rx="1"
       ry="1.0000005" />
    <ellipse
       style="fill:none;stroke:#000000;stroke-width:1;stroke-dasharray:none"
       id="ellipse10184"
       cx="177.22974"
       cy="52.44595"
       rx="1"
       ry="1.0000005" />
    <ellipse
       style="fill:none;stroke:#000000;stroke-width:1;stroke-dasharray:none"
       id="ellipse10186"
       cx="170.93581"
       cy="52.44595"
       rx="1"
       ry="1.0000005" />
    <ellipse
       style="fill:none;stroke:#000000;stroke-width:1;stroke-dasharray:none"
       id="ellipse10188"
       cx="97.040535"
       cy="47.702705"
       rx="1"
       ry="1.0000005" />
    <ellipse
       style="fill:none;stroke:#000000;stroke-width:1;stroke-dasharray:none"
       id="ellipse10190"
       cx="105.89865"
       cy="52.44595"
       rx="1"
       ry="1.0000005" />
    <ellipse
       style="fill:none;stroke:#000000;stroke-width:1;stroke-dasharray:none"
       id="ellipse10192"
       cx="167.93581"
       cy="47.702705"
       rx="1"
       ry="1.0000005" />
    <ellipse
       style="fill:none;stroke:#000000;stroke-width:1;stroke-dasharray:none"
       id="ellipse10194"
       cx="174.1385"
       cy="47.702705"
       rx="1"
       ry="1.0000005" />
    <rect
       style="fill:none;stroke:#000000;stroke-width:0.999996;stroke-dasharray:none"
       id="rect10302"
       width="20"
       height="12.000004"
       x="125.27027"
       y="44.945946"
       rx="0" />
    <ellipse
       style="fill:none;stroke:#000000;stroke-width:1;stroke-dasharray:none"
       id="ellipse12482"
       cx="94.641884"
       cy="218.0946"
       rx="1"
       ry="1.0000005" />
    <ellipse
       style="fill:none;stroke:#000000;stroke-width:1;stroke-dasharray:none"
       id="ellipse12484"
       cx="103.76351"
       cy="213.35135"
       rx="1"
       ry="1.0000005" />
    <ellipse
       style="fill:none;stroke:#000000;stroke-width:1;stroke-dasharray:none"
       id="ellipse12486"
       cx="100.47973"
       cy="218.0946"
       rx="1"
       ry="1.0000005" />
    <ellipse
       style="fill:none;stroke:#000000;stroke-width:1;stroke-dasharray:none"
       id="ellipse12488"
       cx="97.641884"
       cy="213.35135"
       rx="1"
       ry="1.0000005" />
    <ellipse
       style="fill:none;stroke:#000000;stroke-width:1;stroke-dasharray:none"
       id="ellipse12490"
       cx="106.5"
       cy="218.0946"
       rx="1"
       ry="1.0000005" />
    <ellipse
       style="fill:none;stroke:#000000;stroke-width:1;stroke-dasharray:none"
       id="ellipse12492"
       cx="162.50674"
       cy="218.0946"
       rx="1"
       ry="1.0000005" />
    <ellipse
       style="fill:none;stroke:#000000;stroke-width:1;stroke-dasharray:none"
       id="ellipse12494"
       cx="171.62837"
       cy="213.35135"
       rx="1"
       ry="1.0000005" />
    <ellipse
       style="fill:none;stroke:#000000;stroke-width:1;stroke-dasharray:none"
       id="ellipse12496"
       cx="168.34459"
       cy="218.0946"
       rx="1"
       ry="1.0000005" />
    <ellipse
       style="fill:none;stroke:#000000;stroke-width:1;stroke-dasharray:none"
       id="ellipse12498"
       cx="165.50674"
       cy="213.35135"
       rx="1"
       ry="1.0000005" />
    <ellipse
       style="fill:none;stroke:#000000;stroke-width:1;stroke-dasharray:none"
       id="ellipse12500"
       cx="174.36487"
       cy="218.0946"
       rx="1"
       ry="1.0000005" />
    <ellipse
       style="fill:none;stroke:#000000;stroke-width:1;stroke-dasharray:none"
       id="ellipse12502"
       cx="164.62958"
       cy="-57.065113"
       rx="1"
       ry="1.0000005"
       transform="rotate(91.568493)" />
    <ellipse
       style="fill:none;stroke:#000000;stroke-width:1;stroke-dasharray:none"
       id="ellipse12504"
       cx="173.75121"
       cy="-61.808369"
       rx="1"
       ry="1.0000005"
       transform="rotate(91.568493)" />
    <ellipse
       style="fill:none;stroke:#000000;stroke-width:1;stroke-dasharray:none"
       id="ellipse12506"
       cx="170.46742"
       cy="-57.065113"
       rx="1"
       ry="1.0000005"
       transform="rotate(91.568493)" />
    <ellipse
       style="fill:none;stroke:#000000;stroke-width:1;stroke-dasharray:none"
       id="ellipse12508"
       cx="167.62958"
       cy="-61.808369"
       rx="1"
       ry="1.0000005"
       transform="rotate(91.568493)" />
    <ellipse
       style="fill:none;stroke:#000000;stroke-width:1;stroke-dasharray:none"
       id="ellipse12510"
       cx="176.48769"
       cy="-57.065113"
       rx="1"
       ry="1.0000005"
       transform="rotate(91.568493)" />
    <ellipse
       style="fill:none;stroke:#000000;stroke-width:1;stroke-dasharray:none"
       id="ellipse12524"
       cx="92.048676"
       cy="-55.077686"
       rx="1"
       ry="1.0000005"
       transform="rotate(91.568493)" />
    <ellipse
       style="fill:none;stroke:#000000;stroke-width:1;stroke-dasharray:none"
       id="ellipse12526"
       cx="101.1703"
       cy="-59.820942"
       rx="1"
       ry="1.0000005"
       transform="rotate(91.568493)" />
    <ellipse
       style="fill:none;stroke:#000000;stroke-width:1;stroke-dasharray:none"
       id="ellipse12528"
       cx="97.88652"
       cy="-55.077686"
       rx="1"
       ry="1.0000005"
       transform="rotate(91.568493)" />
    <ellipse
       style="fill:none;stroke:#000000;stroke-width:1;stroke-dasharray:none"
       id="ellipse12530"
       cx="95.048676"
       cy="-59.820942"
       rx="1"
       ry="1.0000005"
       transform="rotate(91.568493)" />
    <ellipse
       style="fill:none;stroke:#000000;stroke-width:1;stroke-dasharray:none"
       id="ellipse12532"
       cx="103.90678"
       cy="-55.077686"
       rx="1"
       ry="1.0000005"
       transform="rotate(91.568493)" />
    <ellipse
       style="fill:none;stroke:#000000;stroke-width:1;stroke-dasharray:none"
       id="ellipse12534"
       cx="-104.35036"
       cy="218.6283"
       rx="1"
       ry="1.0000005"
       transform="rotate(-89.359947)" />
    <ellipse
       style="fill:none;stroke:#000000;stroke-width:1;stroke-dasharray:none"
       id="ellipse12536"
       cx="-95.228729"
       cy="213.88504"
       rx="1"
       ry="1.0000005"
       transform="rotate(-89.359947)" />
    <ellipse
       style="fill:none;stroke:#000000;stroke-width:1;stroke-dasharray:none"
       id="ellipse12538"
       cx="-98.512512"
       cy="218.6283"
       rx="1"
       ry="1.0000005"
       transform="rotate(-89.359947)" />
    <ellipse
       style="fill:none;stroke:#000000;stroke-width:1;stroke-dasharray:none"
       id="ellipse12540"
       cx="-101.35036"
       cy="213.88504"
       rx="1"
       ry="1.0000005"
       transform="rotate(-89.359947)" />
    <ellipse
       style="fill:none;stroke:#000000;stroke-width:1;stroke-dasharray:none"
       id="ellipse12542"
       cx="-92.492256"
       cy="218.6283"
       rx="1"
       ry="1.0000005"
       transform="rotate(-89.359947)" />
    <ellipse
       style="fill:none;stroke:#000000;stroke-width:1;stroke-dasharray:none"
       id="ellipse12612"
       cx="-174.04346"
       cy="219.40688"
       rx="1"
       ry="1.0000005"
       transform="rotate(-89.359947)" />
    <ellipse
       style="fill:none;stroke:#000000;stroke-width:1;stroke-dasharray:none"
       id="ellipse12614"
       cx="-164.92183"
       cy="214.66362"
       rx="1"
       ry="1.0000005"
       transform="rotate(-89.359947)" />
    <ellipse
       style="fill:none;stroke:#000000;stroke-width:1;stroke-dasharray:none"
       id="ellipse12616"
       cx="-168.20561"
       cy="219.40688"
       rx="1"
       ry="1.0000005"
       transform="rotate(-89.359947)" />
    <ellipse
       style="fill:none;stroke:#000000;stroke-width:1;stroke-dasharray:none"
       id="ellipse12618"
       cx="-171.04346"
       cy="214.66362"
       rx="1"
       ry="1.0000005"
       transform="rotate(-89.359947)" />
    <ellipse
       style="fill:none;stroke:#000000;stroke-width:1;stroke-dasharray:none"
       id="ellipse12620"
       cx="-162.18535"
       cy="219.40688"
       rx="1"
       ry="1.0000005"
       transform="rotate(-89.359947)" />
    <g
       aria-label="Anton Smári Gunnarsson"
       id="text13395"
       style="font-size:3.175px;font-family:Candara;-inkscape-font-specification:'Candara, Normal';fill:none;stroke:#000000;stroke-width:0.3">
      <path
         d="m 152.90544,184.15315 q -0.14263,0.33177 -0.20774,0.5085 -0.0651,0.17673 -0.0651,0.22789 h -0.16588 q 0,-0.0496 0.43098,-0.98443 0.43253,-0.93483 0.43253,-1.0356 h 0.17518 q 0,0.0915 0.42478,1.01544 0.42633,0.92243 0.42633,1.00459 h -0.15968 q 0,-0.10077 -0.27905,-0.73639 z m 0.51159,-1.15652 h -0.014 q 0,0.045 -0.46043,1.0542 h 0.92707 q -0.22944,-0.5364 -0.34106,-0.78134 -0.11163,-0.2465 -0.11163,-0.27286 z"
         id="path13397" />
      <path
         d="m 154.78439,183.5935 h 0.003 q 0.25425,-0.2279 0.5054,-0.2279 0.2682,0 0.40308,0.11473 0.13642,0.11472 0.13642,0.39997 l -0.002,0.11162 q 0,0.0264 -0.002,0.0791 0,0.18913 0.002,0.3054 l 0.002,0.51315 h -0.15503 q 0.0372,-0.47284 0.0372,-0.98133 0,-0.23875 -0.12868,-0.32712 -0.12712,-0.0884 -0.32866,-0.0884 -0.2589,0 -0.47284,0.19999 -0.003,0.11317 -0.003,0.38757 0,0.20154 0.002,0.38137 l 0.003,0.32866 q 0,0.0326 0.002,0.0992 h -0.14882 q 0.0279,-0.57206 0.0279,-0.76274 0,-0.31006 -0.062,-0.71004 l 0.15193,-0.0326 z"
         id="path13399" />
      <path
         d="m 157.07728,184.88024 q -0.13488,0.0403 -0.231,0.0403 -0.2713,0 -0.35036,-0.15038 -0.0791,-0.15193 -0.0791,-0.48679 0,-0.40618 0.003,-0.72399 -0.093,0 -0.28835,0.009 l 0.006,-0.12712 q 0.17208,0.009 0.2961,0.009 0,-0.16898 0.0186,-0.44803 l 0.13642,-0.009 q -0.0294,0.35812 -0.0294,0.45734 0.13487,0 0.49919,-0.0155 l -0.009,0.13332 q -0.31936,-0.009 -0.49919,-0.009 -0.009,0.2713 -0.009,0.63872 0,0.40308 0.0868,0.5054 0.0884,0.10077 0.2496,0.10077 0.045,0 0.093,-0.008 0.0481,-0.009 0.11937,-0.0279 z"
         id="path13401" />
      <path
         d="m 158.04931,184.95 q -0.2806,0 -0.46974,-0.19688 -0.18758,-0.19844 -0.18758,-0.54261 0,-0.39842 0.21084,-0.62942 0.21084,-0.23099 0.51624,-0.23099 0.24185,0 0.44494,0.18604 0.20309,0.18448 0.20309,0.56275 0,0.39223 -0.21239,0.62167 -0.21084,0.22944 -0.5054,0.22944 z m 0.0279,-1.49603 q -0.28526,0 -0.41858,0.22014 -0.13333,0.21859 -0.13333,0.46664 0,0.31006 0.15193,0.50695 0.15193,0.19688 0.40308,0.19688 0.2837,0 0.42013,-0.22014 0.13642,-0.22014 0.13642,-0.46509 0,-0.3023 -0.15503,-0.50384 -0.15503,-0.20154 -0.40462,-0.20154 z"
         id="path13403" />
      <path
         d="m 159.38256,183.5935 h 0.003 q 0.25425,-0.2279 0.5054,-0.2279 0.2682,0 0.40307,0.11473 0.13643,0.11472 0.13643,0.39997 l -0.002,0.11162 q 0,0.0264 -0.002,0.0791 0,0.18913 0.002,0.3054 l 0.002,0.51315 h -0.15503 q 0.0372,-0.47284 0.0372,-0.98133 0,-0.23875 -0.12868,-0.32712 -0.12712,-0.0884 -0.32866,-0.0884 -0.2589,0 -0.47284,0.19999 -0.003,0.11317 -0.003,0.38757 0,0.20154 0.002,0.38137 l 0.003,0.32866 q 0,0.0326 0.002,0.0992 h -0.14883 q 0.0279,-0.57206 0.0279,-0.76274 0,-0.31006 -0.062,-0.71004 l 0.15193,-0.0326 z"
         id="path13405" />
      <path
         d="m 161.68475,183.30824 q 0,0.11317 0.0357,0.17984 0.0372,0.0667 0.13333,0.13642 0.0961,0.0682 0.2682,0.13333 0.17208,0.0636 0.30231,0.13177 0.13022,0.0667 0.20154,0.14418 0.0729,0.076 0.10231,0.16123 0.0295,0.0853 0.0295,0.19534 0,0.2713 -0.18759,0.40772 -0.18758,0.13643 -0.5457,0.13643 -0.2806,0 -0.48524,-0.0605 l 0.031,-0.14573 q 0.13177,0.0496 0.24649,0.0698 0.11627,0.0186 0.2465,0.0186 0.29145,0 0.42943,-0.0961 0.13798,-0.0961 0.13798,-0.31626 0,-0.17208 -0.10697,-0.28215 -0.10697,-0.11162 -0.41548,-0.22325 -0.30851,-0.11317 -0.42943,-0.23564 -0.12093,-0.12402 -0.12093,-0.31316 0,-0.22944 0.17054,-0.36897 0.17208,-0.13953 0.42013,-0.13953 0.2775,0 0.47283,0.0543 l -0.031,0.13023 q -0.14418,-0.0341 -0.24495,-0.0481 -0.0992,-0.0155 -0.20619,-0.0155 -0.21704,0 -0.33641,0.0992 -0.11782,0.0977 -0.11782,0.24649 z"
         id="path13407" />
      <path
         d="m 163.35441,183.5935 h 0.003 q 0.20929,-0.2279 0.44494,-0.2279 0.20464,0 0.33021,0.0589 0.12557,0.0574 0.16588,0.16899 h 0.0124 q 0.11628,-0.11162 0.23565,-0.16899 0.11937,-0.0589 0.23099,-0.0589 0.26045,0 0.39068,0.11628 0.13022,0.11627 0.13022,0.39842 l -0.003,0.15348 -0.003,0.0837 0.002,0.25734 q 0.005,0.21394 0.005,0.5147 h -0.15038 q 0.0357,-0.42323 0.0357,-1.03249 0,-0.19844 -0.093,-0.28061 -0.093,-0.0837 -0.32556,-0.0837 -0.10697,0 -0.22014,0.0589 -0.11162,0.0589 -0.21549,0.17208 -0.006,0.12402 -0.006,0.39378 0,0.25734 0.009,0.77204 h -0.15193 q 0.0279,-0.39687 0.0279,-0.96893 0,-0.27285 -0.10542,-0.35037 -0.10542,-0.0775 -0.31315,-0.0775 -0.21705,0 -0.44494,0.20929 -0.003,0.0946 -0.003,0.34881 0,0.27906 0.005,0.67438 l 0.002,0.16433 h -0.14263 q 0.0279,-0.57206 0.0279,-0.76274 0,-0.31006 -0.062,-0.71004 l 0.15193,-0.0326 z"
         id="path13409" />
      <path
         d="m 166.69839,184.73141 q -0.20618,0.19689 -0.52089,0.19689 -0.23565,0 -0.36277,-0.10387 -0.12713,-0.10542 -0.12713,-0.30696 0,-0.2527 0.21704,-0.38912 0.2186,-0.13643 0.79375,-0.14108 0.006,-0.0558 0.006,-0.11007 0,-0.21239 -0.12093,-0.29456 -0.12092,-0.0837 -0.33021,-0.0837 -0.24805,0 -0.49919,0.0636 l 0.0202,-0.13332 q 0.23719,-0.0636 0.48524,-0.0636 0.2682,0 0.41858,0.11162 0.15038,0.11008 0.15038,0.36742 0,0.0837 -0.009,0.24495 -0.008,0.15968 -0.008,0.31781 0,0.22789 0.0357,0.48214 l -0.12402,0.006 q -0.0155,-0.0961 -0.0155,-0.16433 z m 0.006,-0.63562 q -0.40928,0 -0.64338,0.0946 -0.23409,0.093 -0.23409,0.34106 0,0.27596 0.36587,0.27596 0.16743,0 0.2961,-0.0496 0.13023,-0.0496 0.2155,-0.15038 z m -0.24805,-1.14256 q -0.0884,0.10232 -0.14418,0.17053 -0.0558,0.0682 -0.0558,0.0837 h -0.0915 q 0,-0.0124 0.0295,-0.0651 0.0294,-0.0543 0.0915,-0.15658 l 0.11937,-0.20619 q 0.0388,-0.0682 0.0388,-0.0744 h 0.21859 q 0,0.005 -0.031,0.0419 -0.0294,0.0357 -0.0496,0.0589 z"
         id="path13411" />
      <path
         d="m 168.13707,183.55319 q -0.12403,-0.0512 -0.26045,-0.0512 -0.14418,0 -0.25115,0.0822 -0.10542,0.0822 -0.15503,0.23875 0,0.72864 0.0124,1.0666 h -0.15193 q 0.0155,-0.42478 0.0155,-0.76274 0,-0.35192 -0.0605,-0.70694 l 0.13642,-0.0357 q 0.0357,0.18448 0.0388,0.25114 h 0.0186 q 0.0961,-0.13642 0.19379,-0.20308 0.0992,-0.0667 0.20619,-0.0667 0.12247,0 0.29765,0.0512 z"
         id="path13413" />
      <path
         d="m 168.45178,182.8354 q 0.0418,0 0.0682,0.0372 0.0263,0.0357 0.0263,0.0837 0,0.0558 -0.0279,0.0961 -0.0279,0.0403 -0.0853,0.0403 -0.0481,0 -0.0775,-0.0357 -0.0279,-0.0357 -0.0279,-0.0853 0,-0.0527 0.0326,-0.0946 0.0341,-0.0419 0.0915,-0.0419 z m -0.13333,0.59377 0.17518,-0.0419 q -0.017,0.36122 -0.017,0.817 0,0.37827 0.0232,0.68523 h -0.16278 q 0.0233,-0.37517 0.0233,-0.68523 0,-0.43718 -0.0419,-0.77514 z"
         id="path13415" />
      <path
         d="m 169.60054,183.91131 q 0,-0.47129 0.31471,-0.7705 0.31626,-0.29921 0.79685,-0.29921 0.16433,0 0.32246,0.0481 l -0.0279,0.14263 q -0.262,-0.0636 -0.38757,-0.0636 -0.39998,0 -0.64338,0.2558 -0.24184,0.25425 -0.24184,0.63872 0,0.47904 0.24805,0.71933 0.24804,0.2403 0.71933,0.2403 0.0915,0 0.15658,-0.008 0.0651,-0.008 0.15813,-0.0279 -0.0124,-0.12557 -0.0124,-0.40617 0,-0.0806 -0.008,-0.20464 l -0.005,-0.12868 h 0.15813 q -0.006,0.0651 -0.014,0.31316 -0.006,0.2465 -0.006,0.40463 0,0.0744 0.002,0.0961 -0.15968,0.0698 -0.44803,0.0698 -0.51315,0 -0.7984,-0.2682 -0.28371,-0.26975 -0.28371,-0.75189 z"
         id="path13417" />
      <path
         d="m 172.73679,184.89264 q -0.0186,-0.0868 -0.0186,-0.14883 h -0.006 q -0.0899,0.0729 -0.22479,0.12713 -0.13488,0.0543 -0.29301,0.0543 -0.32401,0 -0.42788,-0.14108 -0.10232,-0.14263 -0.10232,-0.38602 l 0.002,-0.19689 q 0,-0.0372 0.002,-0.10542 0.003,-0.0853 0.003,-0.22789 0,-0.19844 -0.0186,-0.44494 l 0.16433,-0.009 q -0.0124,0.2713 -0.0124,0.61857 0,0.27905 0.0155,0.45269 0.0155,0.17363 0.0961,0.24339 0.0822,0.0698 0.28836,0.0698 0.32401,0 0.50539,-0.17208 0,-0.92862 -0.0124,-1.20303 l 0.14573,-0.009 -0.002,0.10542 q -0.008,0.46509 -0.008,0.73794 0,0.32246 0.0279,0.63252 z"
         id="path13419" />
      <path
         d="m 173.48558,183.5935 h 0.003 q 0.25424,-0.2279 0.50539,-0.2279 0.2682,0 0.40308,0.11473 0.13642,0.11472 0.13642,0.39997 l -0.002,0.11162 q 0,0.0264 -0.002,0.0791 0,0.18913 0.002,0.3054 l 0.002,0.51315 h -0.15503 q 0.0372,-0.47284 0.0372,-0.98133 0,-0.23875 -0.12867,-0.32712 -0.12713,-0.0884 -0.32866,-0.0884 -0.2589,0 -0.47284,0.19999 -0.003,0.11317 -0.003,0.38757 0,0.20154 0.002,0.38137 l 0.003,0.32866 q 0,0.0326 0.002,0.0992 h -0.14883 q 0.0279,-0.57206 0.0279,-0.76274 0,-0.31006 -0.062,-0.71004 l 0.15193,-0.0326 z"
         id="path13421" />
      <path
         d="m 175.1816,183.5935 h 0.003 q 0.25425,-0.2279 0.50539,-0.2279 0.26821,0 0.40308,0.11473 0.13643,0.11472 0.13643,0.39997 l -0.002,0.11162 q 0,0.0264 -0.002,0.0791 0,0.18913 0.002,0.3054 l 0.002,0.51315 h -0.15503 q 0.0372,-0.47284 0.0372,-0.98133 0,-0.23875 -0.12867,-0.32712 -0.12712,-0.0884 -0.32866,-0.0884 -0.2589,0 -0.47284,0.19999 -0.003,0.11317 -0.003,0.38757 0,0.20154 0.002,0.38137 l 0.003,0.32866 q 0,0.0326 0.002,0.0992 h -0.14883 q 0.0279,-0.57206 0.0279,-0.76274 0,-0.31006 -0.062,-0.71004 l 0.15193,-0.0326 z"
         id="path13423" />
      <path
         d="m 177.63106,184.73141 q -0.20619,0.19689 -0.5209,0.19689 -0.23564,0 -0.36277,-0.10387 -0.12712,-0.10542 -0.12712,-0.30696 0,-0.2527 0.21704,-0.38912 0.21859,-0.13643 0.79375,-0.14108 0.006,-0.0558 0.006,-0.11007 0,-0.21239 -0.12092,-0.29456 -0.12092,-0.0837 -0.33021,-0.0837 -0.24805,0 -0.4992,0.0636 l 0.0202,-0.13332 q 0.23719,-0.0636 0.48524,-0.0636 0.2682,0 0.41858,0.11162 0.15038,0.11008 0.15038,0.36742 0,0.0837 -0.009,0.24495 -0.008,0.15968 -0.008,0.31781 0,0.22789 0.0357,0.48214 l -0.12402,0.006 q -0.0155,-0.0961 -0.0155,-0.16433 z m 0.006,-0.63562 q -0.40928,0 -0.64337,0.0946 -0.23409,0.093 -0.23409,0.34106 0,0.27596 0.36587,0.27596 0.16743,0 0.2961,-0.0496 0.13023,-0.0496 0.21549,-0.15038 z"
         id="path13425" />
      <path
         d="m 179.06973,183.55319 q -0.12402,-0.0512 -0.26045,-0.0512 -0.14417,0 -0.25114,0.0822 -0.10542,0.0822 -0.15503,0.23875 0,0.72864 0.0124,1.0666 h -0.15193 q 0.0155,-0.42478 0.0155,-0.76274 0,-0.35192 -0.0605,-0.70694 l 0.13643,-0.0357 q 0.0357,0.18448 0.0388,0.25114 h 0.0186 q 0.0961,-0.13642 0.19379,-0.20308 0.0992,-0.0667 0.20618,-0.0667 0.12248,0 0.29766,0.0512 z"
         id="path13427" />
      <path
         d="m 179.22631,184.83838 0.0341,-0.14573 q 0.10387,0.0481 0.22634,0.0698 0.12402,0.0217 0.28215,0.0217 0.14883,0 0.2341,-0.0713 0.0868,-0.0713 0.0868,-0.18449 0,-0.093 -0.045,-0.16433 -0.045,-0.0713 -0.20619,-0.13487 -0.16123,-0.0651 -0.29921,-0.12868 -0.13797,-0.0636 -0.20464,-0.15193 -0.0651,-0.0899 -0.0651,-0.20463 0,-0.16744 0.13333,-0.2651 0.13332,-0.0977 0.33641,-0.0977 0.22169,0 0.41703,0.0574 l -0.0357,0.13022 q -0.15348,-0.0636 -0.39687,-0.0636 -0.15193,0 -0.24185,0.0682 -0.0884,0.0682 -0.0884,0.16743 0,0.11318 0.0946,0.17674 0.0946,0.0636 0.31781,0.15503 0.22324,0.0899 0.31471,0.18138 0.093,0.0915 0.093,0.25425 0,0.19379 -0.13023,0.30076 -0.13022,0.10542 -0.35966,0.10542 -0.2589,0 -0.49765,-0.076 z"
         id="path13429" />
      <path
         d="m 180.55646,184.83838 0.0341,-0.14573 q 0.10387,0.0481 0.22634,0.0698 0.12403,0.0217 0.28216,0.0217 0.14882,0 0.23409,-0.0713 0.0868,-0.0713 0.0868,-0.18449 0,-0.093 -0.045,-0.16433 -0.045,-0.0713 -0.20619,-0.13487 -0.16123,-0.0651 -0.29921,-0.12868 -0.13797,-0.0636 -0.20464,-0.15193 -0.0651,-0.0899 -0.0651,-0.20463 0,-0.16744 0.13333,-0.2651 0.13332,-0.0977 0.33641,-0.0977 0.22169,0 0.41703,0.0574 l -0.0357,0.13022 q -0.15348,-0.0636 -0.39687,-0.0636 -0.15193,0 -0.24185,0.0682 -0.0884,0.0682 -0.0884,0.16743 0,0.11318 0.0946,0.17674 0.0946,0.0636 0.31781,0.15503 0.22324,0.0899 0.31471,0.18138 0.093,0.0915 0.093,0.25425 0,0.19379 -0.13023,0.30076 -0.13022,0.10542 -0.35966,0.10542 -0.2589,0 -0.49765,-0.076 z"
         id="path13431" />
      <path
         d="m 182.56874,184.95 q -0.2806,0 -0.46973,-0.19688 -0.18759,-0.19844 -0.18759,-0.54261 0,-0.39842 0.21084,-0.62942 0.21084,-0.23099 0.51625,-0.23099 0.24184,0 0.44493,0.18604 0.20309,0.18448 0.20309,0.56275 0,0.39223 -0.21239,0.62167 -0.21084,0.22944 -0.5054,0.22944 z m 0.0279,-1.49603 q -0.28525,0 -0.41858,0.22014 -0.13332,0.21859 -0.13332,0.46664 0,0.31006 0.15192,0.50695 0.15193,0.19688 0.40308,0.19688 0.2837,0 0.42013,-0.22014 0.13643,-0.22014 0.13643,-0.46509 0,-0.3023 -0.15503,-0.50384 -0.15503,-0.20154 -0.40463,-0.20154 z"
         id="path13433" />
      <path
         d="m 183.902,183.5935 h 0.003 q 0.25424,-0.2279 0.50539,-0.2279 0.2682,0 0.40308,0.11473 0.13642,0.11472 0.13642,0.39997 l -0.002,0.11162 q 0,0.0264 -0.002,0.0791 0,0.18913 0.002,0.3054 l 0.002,0.51315 h -0.15503 q 0.0372,-0.47284 0.0372,-0.98133 0,-0.23875 -0.12867,-0.32712 -0.12713,-0.0884 -0.32866,-0.0884 -0.2589,0 -0.47284,0.19999 -0.003,0.11317 -0.003,0.38757 0,0.20154 0.002,0.38137 l 0.003,0.32866 q 0,0.0326 0.002,0.0992 h -0.14883 q 0.0279,-0.57206 0.0279,-0.76274 0,-0.31006 -0.062,-0.71004 l 0.15193,-0.0326 z"
         id="path13435" />
    </g>
  </g>
</svg>
